<?xml version="1.0" standalone="no"?>
<!DOCTYPE svg PUBLIC "-//W3C//DTD SVG 20010904//EN"
 "http://www.w3.org/TR/2001/REC-SVG-20010904/DTD/svg10.dtd">
<svg version="1.0" xmlns="http://www.w3.org/2000/svg"
 width="100.000000pt" height="100.000000pt" viewBox="0 0 100.000000 100.000000"
 preserveAspectRatio="xMidYMid meet">
<metadata>
Created by potrace 1.16, written by Peter Selinger 2001-2019
</metadata>
<g transform="translate(0.000000,100.000000) scale(0.100000,-0.100000)"
fill="#000000" stroke="none">
<path d="M380 953 c-178 -49 -311 -196 -342 -380 -55 -328 255 -611 577 -528
172 45 310 190 346 363 15 74 6 182 -21 255 -47 124 -173 246 -293 282 -81 25
-191 28 -267 8z m313 -74 c-4 -14 -11 -18 -32 -13 -18 3 -12 -3 20 -20 68 -37
138 -112 173 -186 28 -58 31 -75 31 -160 0 -86 -3 -101 -32 -162 -40 -85 -106
-151 -191 -191 -61 -29 -76 -32 -162 -32 -86 0 -101 3 -162 32 -85 40 -151
106 -191 191 -29 61 -32 76 -32 162 0 88 3 101 33 162 82 166 259 256 432 219
49 -11 56 -10 73 8 24 23 47 18 40 -10z m-589 -510 c32 -111 131 -216 246
-260 161 -62 355 -14 466 114 45 53 69 98 94 184 20 68 20 68 15 18 -3 -28
-20 -82 -40 -121 -128 -261 -483 -317 -691 -110 -63 64 -111 157 -119 231 -6
54 -1 44 29 -56z"/>
<path d="M400 865 c-228 -64 -342 -318 -238 -533 34 -71 122 -154 193 -182 84
-34 206 -34 290 0 83 32 173 123 204 205 64 168 14 347 -127 450 -89 65 -216
89 -322 60z m240 -47 c0 -2 -11 -39 -25 -83 -14 -44 -25 -86 -25 -93 0 -18 25
-9 25 9 0 8 12 26 25 40 14 15 32 37 40 49 12 17 21 20 42 15 16 -4 26 -10 24
-14 -3 -4 -1 -13 4 -21 10 -16 -24 -60 -47 -60 -7 0 -18 -9 -25 -20 -7 -11
-20 -20 -29 -20 -21 0 -29 -9 -23 -25 4 -10 27 -6 96 16 50 15 95 26 100 23
10 -7 11 -261 0 -268 -5 -3 -45 7 -91 20 -118 37 -129 27 -53 -46 34 -33 62
-64 62 -69 0 -28 -26 -15 -79 41 -33 34 -63 59 -67 55 -4 -4 5 -47 19 -97 15
-49 27 -91 27 -94 0 -9 -268 -7 -274 2 -3 5 8 50 23 100 36 115 25 123 -58 36
-54 -57 -81 -72 -81 -45 0 5 28 36 62 70 34 33 59 64 55 67 -6 6 -119 -22
-171 -42 -14 -5 -16 11 -16 135 0 78 1 141 3 141 1 0 44 -13 95 -29 80 -25 93
-27 90 -13 -2 9 -11 18 -21 20 -10 2 -28 13 -41 25 -13 12 -34 29 -46 38 -18
12 -22 21 -17 41 11 41 46 47 74 12 12 -16 30 -38 40 -49 10 -11 18 -26 20
-34 2 -19 19 -34 31 -27 6 4 -1 42 -19 98 -16 51 -29 94 -29 96 0 1 63 2 140
2 77 0 140 -1 140 -2z"/>
<path d="M386 785 c25 -99 43 -140 61 -137 10 2 34 4 53 4 19 0 43 -2 53 -4
18 -3 36 38 61 137 l6 25 -120 0 -120 0 6 -25z"/>
<path d="M464 625 l-31 -14 -2 -91 c-1 -63 2 -97 11 -108 12 -15 11 -16 -4 -3
-15 11 -18 30 -18 102 0 49 -4 89 -9 89 -4 0 -18 -22 -29 -50 l-21 -50 21 -49
c17 -43 27 -52 69 -70 l49 -22 49 22 c42 18 52 28 70 69 l21 48 -21 51 c-12
28 -25 51 -30 51 -5 0 -10 -42 -12 -92 l-3 -93 -2 97 -2 98 -36 15 c-20 8 -37
15 -38 14 0 0 -15 -7 -32 -14z"/>
<path d="M190 500 l0 -120 25 6 c99 25 140 43 137 61 -7 39 -6 79 1 100 7 20
2 24 -60 43 -37 11 -76 23 -85 26 -16 5 -18 -5 -18 -116z"/>
<path d="M717 594 c-72 -23 -77 -27 -70 -47 7 -21 8 -61 1 -100 -3 -18 38 -36
137 -61 l25 -6 0 120 c0 66 -3 120 -7 119 -5 0 -43 -12 -86 -25z"/>
<path d="M410 293 c-11 -37 -23 -76 -26 -85 -5 -17 5 -18 116 -18 111 0 121 1
116 18 -3 9 -15 48 -26 85 -19 62 -23 67 -43 60 -12 -4 -33 -7 -47 -7 -14 0
-35 3 -47 7 -20 7 -24 2 -43 -60z"/>
</g>
</svg>
